HIERARCHY
ROOT Hips
{
	OFFSET 0.00000 0.00000 0.00000
	CHANNELS 6 Xposition Yposition Zposition Zrotation Yrotation Xrotation 
	JOINT LHipJoint
	{
		OFFSET 0 0 0
		CHANNELS 3 Zrotation Yrotation Xrotation
		JOINT LeftHip
		{
			OFFSET 1.59715 -1.91394 0.36268
			CHANNELS 3 Zrotation Yrotation Xrotation
			JOINT LeftKnee
			{
				OFFSET 2.53886 -6.97546 0.00000
				CHANNELS 3 Zrotation Yrotation Xrotation
				JOINT LeftAnkle
				{
					OFFSET 2.77084 -7.61284 0.00000
					CHANNELS 3 Zrotation Yrotation Xrotation
					JOINT LeftToe
					{
						OFFSET 0.19855 -0.54550 2.06057
						CHANNELS 3 Zrotation Yrotation Xrotation
						End Site
						{
							OFFSET 0.00000 -0.00000 1.07182
						}
					}
				}
			}
		}
	}
	JOINT RHipJoint
	{
		OFFSET 0 0 0
		CHANNELS 3 Zrotation Yrotation Xrotation
		JOINT RightHip
		{
			OFFSET -1.71086 -1.91394 0.36268
			CHANNELS 3 Zrotation Yrotation Xrotation
			JOINT RightKnee
			{
				OFFSET -2.59448 -7.12828 0.00000
				CHANNELS 3 Zrotation Yrotation Xrotation
				JOINT RightAnkle
				{
					OFFSET -2.80237 -7.69945 0.00000
					CHANNELS 3 Zrotation Yrotation Xrotation
					JOINT RightToe
					{
						OFFSET -0.18280 -0.50224 2.06614
						CHANNELS 3 Zrotation Yrotation Xrotation
						End Site
						{
							OFFSET -0.00000 -0.00000 1.07055
						}
					}
				}
			}
		}
	}
	JOINT lowerback
	{
		OFFSET 0 0 0
		CHANNELS 3 Zrotation Yrotation Xrotation
		JOINT Chest
		{
			OFFSET 0.04838 1.91536 -0.09733
			CHANNELS 3 Zrotation Yrotation Xrotation
			JOINT Chest2
			{
				OFFSET 0.04097 1.92183 -0.02751
				CHANNELS 3 Zrotation Yrotation Xrotation
				JOINT lowerneck
				{
					OFFSET 0 0 0
					CHANNELS 3 Zrotation Yrotation Xrotation
					JOINT Neck
					{
						OFFSET 0.18766 3.12816 0.13727
						CHANNELS 3 Zrotation Yrotation Xrotation
						JOINT Head
						{
							OFFSET -0.11178 3.16074 0.02732
							CHANNELS 3 Zrotation Yrotation Xrotation
							End Site
							{
								OFFSET 0.47685 1.04189 0.57898
							}
						}
					}
				}
				JOINT LeftCollar
				{
					OFFSET 0 0 0
					CHANNELS 3 Zrotation Yrotation Xrotation
					JOINT LeftShoulder
					{
						OFFSET 3.49325 0.99827 -0.10681
CHANNELS 3 Zrotation Xrotation Yrotation
						JOINT LeftElbow
						{
OFFSET 0 -5.128420 0.000000
CHANNELS 3 Zrotation Xrotation Yrotation
							JOINT LeftWrist
							{
OFFSET 0 -3.473960 0.000000
CHANNELS 3 Zrotation Xrotation Yrotation
								JOINT lhand
								{
									OFFSET 0 0 0
CHANNELS 3 Zrotation Xrotation Yrotation
									JOINT LFingers
									{
OFFSET 0 -0.728610 0.000000
CHANNELS 3 Zrotation Xrotation Yrotation
										End Site
										{
OFFSET 0 -0.587420 0.000000
										}
									}
								}
								JOINT LThumb
								{
OFFSET 0 0.000000 0.000000
CHANNELS 3 Zrotation Xrotation Yrotation
									End Site
									{
OFFSET 0 -0.596390 0.596390
									}
								}
							}
						}
					}
				}
				JOINT RightCollar
				{
					OFFSET 0 0 0
					CHANNELS 3 Zrotation Yrotation Xrotation
					JOINT RightShoulder
					{
						OFFSET -3.23261 1.50670 -0.18692
CHANNELS 3 Zrotation Xrotation Yrotation
						JOINT RightElbow
						{
OFFSET 0 -5.484770 -0.000000
CHANNELS 3 Zrotation Xrotation Yrotation
							JOINT RightWrist
							{
OFFSET 0 -3.478560 0.000000
CHANNELS 3 Zrotation Xrotation Yrotation
								JOINT rhand
								{
									OFFSET 0 0 0
CHANNELS 3 Zrotation Xrotation Yrotation
									JOINT RFingers
									{
OFFSET 0 -0.709970 0.000000
CHANNELS 3 Zrotation Xrotation Yrotation
										End Site
										{
OFFSET 0 -0.572400 0.000000
										}
									}
								}
								JOINT RThumb
								{
OFFSET 0 0.000000 0.000000
CHANNELS 3 Zrotation Xrotation Yrotation
									End Site
									{
OFFSET 0 -0.581140 0.581140
									}
								}
							}
						}
					}
				}
			}
		}
	}
}
MOTION
Frames: 7
Frame Time: 0.008333333333333333
1.826829 18.071445 10.882626 346.278027 -78.806290 -341.968432 0.000000 0.000000 0.000000 -9.584338 -16.475272 -28.809734 5.239099 13.646367 41.842223 0.442917 3.501234 -14.346492 0.101634 -2.056132 -5.660756 0.000000 0.000000 0.000000 32.488809 12.265252 -11.928375 -3.289837 -11.149972 32.787494 -1.096983 -2.270997 -20.724998 -4.142400 -12.347467 36.972451 3.771751 0.551827 6.763434 3.762739 1.084989 0.350463 1.673656 0.476182 -3.436344 -5.763031 -3.066594 -14.826171 -0.819733 -2.920635 23.713915 0.278866 -2.071592 10.093690 0.000000 0.000000 0.000000 -4.733827 3.111244 -10.399510 14.680430 -23.699045 3.096415 12.548602 19.585428 -30.674989 0.000000 0.000000 0.000000 -7.125000 0.000000 0.000000 -21.774984 59.925878 8.163915 0.000000 0.000000 0.000000 -4.467236 -1.380501 14.428097 -17.461335 -27.461746 -4.297996 -26.911039 -14.642429 -14.295721 0.000000 0.000000 0.000000 7.125000 0.000000 0.000000 0.387937 14.032108 0.282251
0.543125 18.094586 11.127056 329.015304 -83.900583 -323.825501 0.000000 0.000000 0.000000 -6.440096 -21.998846 -25.796542 1.167339 6.853891 19.284970 0.362439 4.315380 -13.788198 0.102643 -2.062163 -5.677746 0.000000 0.000000 0.000000 32.840266 11.172707 -5.963477 -2.639952 -10.088023 29.262194 -1.107589 2.197127 -19.282028 -3.907913 -12.035782 35.860218 3.967967 1.015214 5.739508 3.797746 1.666706 -0.002011 1.559327 0.761982 -3.223419 -5.901405 -2.888110 -14.558157 -1.265819 -2.561518 23.337248 0.198836 -1.969742 9.897303 0.000000 0.000000 0.000000 -5.767307 3.953397 -6.481770 13.615464 -22.182260 2.681157 13.118003 20.931066 -30.601848 0.000000 0.000000 0.000000 -7.125000 0.000000 0.000000 -21.120259 59.991031 7.937575 0.000000 0.000000 0.000000 -4.767521 -1.700767 17.142546 -20.184151 -30.863516 -5.625556 -26.310644 -15.677712 -14.696874 0.000000 0.000000 0.000000 7.125000 0.000000 0.000000 0.827789 13.671581 0.608728
-0.765080 17.929779 11.407704 261.887646 -85.893251 -257.375644 0.000000 0.000000 0.000000 -5.259648 -24.400677 -23.880744 0.850310 5.878917 16.434050 0.242417 -7.201176 -9.481790 0.286621 -3.428116 -9.474459 0.000000 0.000000 0.000000 33.117814 10.025409 -1.133750 -2.917178 -10.559738 30.809024 -1.125122 5.557375 -18.973494 -3.610032 -11.617152 34.397495 4.627038 1.331809 6.367089 3.851030 2.138761 0.389212 1.197633 0.982302 -3.147194 -5.513442 -3.137103 -14.279813 -1.375413 -3.018724 22.893969 0.046971 -2.153911 9.686692 0.000000 0.000000 0.000000 -5.814669 3.736305 -4.718486 13.046007 -21.354628 2.470031 12.763805 21.646810 -30.523396 0.000000 0.000000 0.000000 -7.125000 0.000000 0.000000 -21.430030 59.836010 7.980938 0.000000 0.000000 0.000000 -4.612159 -2.217452 17.552477 -20.581852 -31.336884 -5.830971 -27.062141 -16.462889 -14.038340 0.000000 0.000000 0.000000 7.125000 0.000000 0.000000 0.263430 14.296170 0.190209
-2.204807 17.938789 11.675580 190.822072 -80.184387 -187.487629 0.000000 0.000000 0.000000 -10.202898 -22.404401 -21.678331 2.010937 8.888510 25.447313 -0.166438 -9.944917 -3.671861 0.002672 0.334456 0.918983 0.000000 0.000000 0.000000 28.573710 11.182569 -1.316584 -5.343470 -13.758186 42.281806 -0.395145 7.650195 -11.618097 -2.903426 -10.536839 30.733458 1.720867 2.033498 6.776513 2.896236 2.867754 0.794558 1.758553 1.394873 -3.041145 -6.605570 -4.223492 -13.515065 0.341376 -4.843295 23.567498 0.593152 -2.935667 9.896806 0.000000 0.000000 0.000000 -5.596293 3.517848 -1.872197 12.674881 -20.809029 2.336518 13.151617 22.613030 -30.660357 0.000000 0.000000 0.000000 -7.125000 0.000000 0.000000 -21.130754 60.052831 7.973291 0.000000 0.000000 0.000000 -3.642429 -2.612452 14.413026 -17.403077 -27.385658 -4.271380 -27.873530 -14.282033 -14.251215 0.000000 0.000000 0.000000 7.125000 0.000000 0.000000 -0.267228 13.949224 -0.194999
-3.509989 18.100252 11.828293 180.338740 -71.697944 -177.782666 0.000000 0.000000 0.000000 -15.400735 -15.216876 -17.188850 2.232876 9.335226 26.849687 0.121504 -8.578197 -8.138083 0.030785 1.131678 3.111277 0.000000 0.000000 0.000000 23.000420 9.137879 -13.478512 -11.340357 -18.097054 63.881308 0.039516 -3.954937 0.533785 -3.458435 -11.401604 33.647789 -0.755058 1.425686 7.064782 2.294994 1.868578 0.969505 2.616806 0.929968 -3.060190 -7.047090 -5.187454 -12.368895 1.218776 -6.472994 23.049876 0.791194 -3.653700 9.604368 0.000000 0.000000 0.000000 -3.862840 4.024493 -3.333016 13.125406 -21.470668 2.498994 13.450089 21.040279 -30.833616 0.000000 0.000000 0.000000 -7.125000 0.000000 0.000000 -20.953324 60.283458 8.018662 0.000000 0.000000 0.000000 -2.689587 -2.709792 13.144056 -15.912455 -25.401771 -3.608376 -27.051603 -12.152822 -14.120350 0.000000 0.000000 0.000000 7.125000 0.000000 0.000000 0.277613 14.206838 0.201017
-4.584624 18.153537 11.888810 181.073823 -63.902181 -178.436900 0.000000 0.000000 0.000000 -17.433316 -11.282470 -13.679541 2.388624 9.632448 27.794554 0.554655 -4.305263 -13.264510 0.014003 0.756430 2.078809 0.000000 0.000000 0.000000 21.626635 5.765277 -25.627124 -13.927849 -19.092008 71.984042 0.400217 -11.826790 -8.645531 -4.258503 -12.495773 37.510540 -1.051146 0.343744 7.809416 2.483391 0.408394 0.762564 3.124264 0.212670 -3.616989 -6.803083 -5.872986 -11.279246 1.260814 -7.640364 22.317239 0.660978 -4.197113 9.186116 0.000000 0.000000 0.000000 -0.877116 3.035505 -4.646363 13.705917 -22.312745 2.715492 14.027539 20.579263 -31.128882 0.000000 0.000000 0.000000 -7.125000 0.000000 0.000000 -20.577629 60.694440 8.069936 0.000000 0.000000 0.000000 -2.504053 -1.362018 14.466223 -17.097680 -26.986372 -4.131582 -29.618523 -15.688664 -14.587162 0.000000 0.000000 0.000000 7.125000 0.000000 0.000000 -1.409669 13.317932 -1.047504
-5.497642 18.024309 11.777387 181.771641 -56.540300 -177.386317 0.000000 0.000000 0.000000 -18.835849 -9.971302 -13.262725 2.937757 10.593503 30.921000 1.005793 1.348110 -19.478625 0.063644 1.572177 4.325692 0.000000 0.000000 0.000000 21.450528 7.559374 -33.923263 -10.814548 -17.841637 62.175944 -0.132232 -6.835117 -12.443298 -2.387372 -9.629906 27.786627 -1.375541 -0.153823 7.586956 3.072032 -0.269967 0.562990 3.996746 -0.117977 -3.653403 -7.018933 -5.473180 -12.205588 1.616325 -6.988556 21.544044 0.879314 -3.845057 9.082619 0.000000 0.000000 0.000000 1.899908 0.982355 -7.162104 15.474659 -24.803038 3.422603 17.020461 18.754928 -31.414459 0.000000 0.000000 0.000000 -7.125000 0.000000 0.000000 -17.570713 61.693513 7.261746 0.000000 0.000000 0.000000 -3.466269 -1.297132 12.806150 -17.357521 -27.326623 -4.250184 -27.515625 -15.077870 -14.419737 0.000000 0.000000 0.000000 7.125000 0.000000 0.000000 -0.009994 13.811585 -0.007477
